<?xml version="1.0" encoding="UTF-8"?><svg id="Calque_1" xmlns="http://www.w3.org/2000/svg" viewBox="0 0 685.21 190.8"><path d="m2.1,7.1h9.1v52.8l-.6,10.7h25.2l-.2-4.6v-4.1h9.1v16.2H2.1V7v.1Z" fill="#000"/><path d="m63,50.9c0-18.8,9.3-28.6,22.3-28.6s20.3,9.6,20.3,22.2v7.6h-34.6l2.5,7.6c.7,7.1,3.9,11.8,11.8,11.8s9.6-3.5,10.5-10.2h9.3c-1.8,11.8-8.6,17.8-19.8,17.8s-22.3-9.4-22.3-28.2h0Zm35.5-5.4l-2.5-7.6c-1.1-4.3-3.8-8.5-10.7-8.5s-10,3.1-11.8,8.5l-2.5,7.6h27.5Z" fill="#000"/><path d="m124.4,61.6h9.1c-1,7.7,5.7,9.9,12,9.9s11.6-2.8,11.6-8.3-4.5-6.6-11.4-8.3l-5.6-1.4c-10.7-2.7-14.7-8.2-14.7-15.5,0-10.6,10.2-15.6,19.9-15.6s21.6,6.3,21.2,18.8h-9.3c.4-8.7-6-11.7-12-11.7s-11.2,2.3-11.2,8.1,3.8,6.5,9.4,7.9l5.6,1.4c10.5,2.6,17.2,7,17.2,15.9s-8.9,16.3-20.7,16.3-23.3-6.7-21.1-17.6v.1Z" fill="#000"/><path d="m230,7.1h14.6l18.9,71.1h-9.8l-2.5-11.2-1.5-8.6h-24.5l-1.5,8.6-2.5,11.2h-9.3L230.2,7.1h-.2Zm18.1,44.1l-2.6-8.6-6.6-28.4h-3l-6.5,28.4-2.6,8.6h21.4-.1Z" fill="#000"/><path d="m311.7,60.3h9.1c0,11.8-8.1,18.9-16.8,18.9s-16.6-7.1-16.6-18.9v-19.2l.6-10.7h-11.8v-7.1h11.8l-.6-10.7v-5.6h9.1v5.6l-.6,10.7h25v7.1h-25l.6,10.7v19.2c0,8.6,3.5,11.4,7.5,11.3,4.1.1,7.7-2.6,7.7-11.3h0Z" fill="#000"/><path d="m338.1,50.9c0-18.8,9.3-28.6,22.3-28.6s20.3,9.6,20.3,22.2v7.6h-34.6l2.5,7.6c.7,7.1,3.9,11.8,11.8,11.8s9.6-3.5,10.5-10.2h9.3c-1.8,11.8-8.6,17.8-19.8,17.8s-22.3-9.4-22.3-28.2h0Zm35.5-5.4l-2.5-7.6c-1.1-4.3-3.8-8.5-10.7-8.5s-10,3.1-11.8,8.5l-2.5,7.6h27.5Z" fill="#000"/><path d="m414.3,7.2h0c0-.1-14.3-.1-14.3-.1V0h22.8v59.9l-.6,10.7h18.4v7.6h-40.6v-7.6h14.3l-.6-10.7V17.9l.6-10.7h0Z" fill="#000"/><path d="m458.9,70.5h18.4l-.6-10.7v-18.8l.6-10.7h-18.4v-7.1h26.9v36.5l-.6,10.7h18.4v7.6h-44.7v-7.6.1Zm17.3-64.9h10.2v9.6h-10.2V5.6Z" fill="#000"/><path d="m520.8,50.9c0-18.8,9.3-28.6,22.3-28.6s20.3,9.6,20.3,22.2v7.6h-34.6l2.5,7.6c.7,7.1,3.9,11.8,11.8,11.8s9.6-3.5,10.5-10.2h9.3c-1.8,11.8-8.6,17.8-19.8,17.8s-22.3-9.4-22.3-28.2h0Zm35.5-5.4l-2.5-7.6c-1.1-4.3-3.8-8.5-10.7-8.5s-10,3.1-11.8,8.5l-2.5,7.6h27.5Z" fill="#000"/><path d="m585.3,41.2l.6-10.7h0c0-.1-6.2-.1-6.2-.1v-7.1h12.7l-3,14.7h3c2.6-12.2,9.8-15.7,18.3-15.7s15.7,9.5,15.7,24.3,0,1.9-.1,2.8h-9v-2.8c0-10.9-2-17.1-8.3-17.1s-14.5,7.2-14.5,21v27.6h-9.1v-36.9h-.1Z" fill="#000"/><path d="m643.1,61.6h9.1c-1,7.7,5.7,9.9,12,9.9s11.6-2.8,11.6-8.3-4.5-6.6-11.4-8.3l-5.6-1.4c-10.7-2.7-14.7-8.2-14.7-15.5,0-10.6,10.1-15.6,19.9-15.6s21.6,6.3,21.2,18.8h-9.3c.4-8.7-6-11.7-12-11.7s-11.2,2.3-11.2,8.1,3.8,6.5,9.4,7.9l5.6,1.4c10.5,2.6,17.2,7,17.2,15.9s-8.9,16.3-20.7,16.3-23.3-6.7-21.1-17.6v.1Z" fill="#000"/><path d="m5.6,133.5l.6-10.7h0c0-.1-6.2-.1-6.2-.1v-7.1h12.7l-3,14.7h3c2.6-12.2,8.8-16.4,17.3-16.4s18.8,7.6,18.8,29.1-8.5,28.4-18.8,28.4-14.6-3.7-17.3-15.7h-3l5.1,24.6v10.5H5.7v-57.2l-.1-.1Zm22.7,30.7c5.9,0,11.5-4.7,11.4-21.2-.1-16-5.1-21.9-11.4-21.9s-13.5,7.4-13.5,21.9,6.5,21.2,13.5,21.2Z" fill="#000"/><path d="m63.5,152.6v-37h9.1v37c-.1,7.5,2.4,12.3,8.3,12.3s13.5-7.7,13.5-21.7v-27.6h9.1v40.1c0,5.5,1.4,7.1,6.6,7.1v7.6c-8.7,0-10.7-2.9-10.7-14.7h-3c-2.6,12.2-8.8,16.4-17.3,16.4s-15.7-7.7-15.7-19.5h.1Z" fill="#000"/><path d="m132,155.7h-3l3,14.7h-7.1v-78.2h9.1v13.5l-5.1,24.6h3c2.6-12.2,8.8-16.4,17.3-16.4s18.8,7.6,18.8,29.1-8.5,28.4-18.8,28.4-14.6-3.7-17.3-15.7h.1Zm15.5,8.5c5.9,0,11.5-4.7,11.4-21.2-.1-16-5.1-21.9-11.4-21.9s-13.5,7.4-13.5,21.9,6.5,21.2,13.5,21.2Z" fill="#000"/><path d="m200.1,99.5h0c0-.1-14.3-.1-14.3-.1v-7.1h22.8v59.9l-.6,10.7h18.4v7.6h-40.6v-7.6h14.3l-.6-10.7v-42l.6-10.7h0Z" fill="#000"/><path d="m244.6,162.8h18.4l-.6-10.7v-18.8l.6-10.7h-18.4v-7.1h26.9v36.5l-.6,10.7h18.4v7.6h-44.7v-7.6.1Zm17.3-65h10.2v9.6h-10.2v-9.6Z" fill="#000"/><path d="m329.4,114.6c13,0,21.1,8.9,21.1,21.3h-9.1c0-7.2-4-14.2-12-14.2s-14,7.7-14,21.4c-.1,13.8,5.6,20.7,14,20.7s12.2-5.8,12.2-15.2h9.1c0,14.6-8.7,22.8-21.3,22.8s-23.3-9.5-23.3-28.3,9.8-28.5,23.3-28.5h0Z" fill="#000"/><path d="m368,153.9h9.1c-1,7.7,5.7,9.9,12,9.9s11.6-2.8,11.6-8.3-4.5-6.6-11.4-8.3l-5.6-1.4c-10.7-2.7-14.7-8.2-14.7-15.5,0-10.6,10.1-15.6,19.9-15.6s21.6,6.3,21.2,18.8h-9.3c.4-8.7-6-11.7-12-11.7s-11.2,2.3-11.2,8.1,3.8,6.5,9.4,7.9l5.6,1.4c10.5,2.6,17.2,7,17.2,15.9s-8.9,16.3-20.7,16.3-23.3-6.7-21.1-17.6v.1Z" fill="#000"/></svg>